<?xml version="1.0" encoding="utf-8"?>
<!-- Generator: Adobe Illustrator 23.0.6, SVG Export Plug-In . SVG Version: 6.00 Build 0)  -->
<svg version="1.1" id="Layer_1" xmlns="http://www.w3.org/2000/svg" xmlns:xlink="http://www.w3.org/1999/xlink" x="0px" y="0px"
	 viewBox="0 0 90 128" style="enable-background:new 0 0 90 128;" xml:space="preserve">
<style type="text/css">
	.st0{fill-rule:evenodd;clip-rule:evenodd;fill:#FFFFFF;}
</style>
<g id="Layer_x0020_1">
	<path class="st0" d="M10.2,0h69.6C85.4,0,90,4.6,90,10.2v107.6c0,5.6-4.6,10.2-10.2,10.2H10.2C4.6,128,0,123.4,0,117.8V10.2
		C0,4.6,4.6,0,10.2,0z M19.9,67.6c4.8,0,8.6-3.9,8.6-8.6c0-4.8-3.9-8.6-8.6-8.6c-4.8,0-8.6,3.9-8.6,8.6
		C11.3,63.8,15.1,67.6,19.9,67.6z M19.9,115.1c4.8,0,8.6-3.9,8.6-8.6c0-4.8-3.9-8.6-8.6-8.6c-4.8,0-8.6,3.9-8.6,8.6
		C11.3,111.3,15.1,115.1,19.9,115.1z M70.1,115.1c4.8,0,8.6-3.9,8.6-8.6c0-4.8-3.9-8.6-8.6-8.6c-4.8,0-8.6,3.9-8.6,8.6
		C61.5,111.3,65.4,115.1,70.1,115.1z M45,115.1c4.8,0,8.6-3.9,8.6-8.6c0-4.8-3.9-8.6-8.6-8.6c-4.8,0-8.6,3.9-8.6,8.6
		C36.4,111.3,40.2,115.1,45,115.1z M19.9,91.4c4.8,0,8.6-3.9,8.6-8.6c0-4.8-3.9-8.6-8.6-8.6c-4.8,0-8.6,3.9-8.6,8.6
		C11.3,87.5,15.1,91.4,19.9,91.4z M70.1,91.4c4.8,0,8.6-3.9,8.6-8.6c0-4.8-3.9-8.6-8.6-8.6c-4.8,0-8.6,3.9-8.6,8.6
		C61.5,87.5,65.4,91.4,70.1,91.4z M45,91.4c4.8,0,8.6-3.9,8.6-8.6c0-4.8-3.9-8.6-8.6-8.6c-4.8,0-8.6,3.9-8.6,8.6
		C36.4,87.5,40.2,91.4,45,91.4z M70.1,67.6c4.8,0,8.6-3.9,8.6-8.6c0-4.8-3.9-8.6-8.6-8.6c-4.8,0-8.6,3.9-8.6,8.6
		C61.5,63.8,65.4,67.6,70.1,67.6z M45,67.6c4.8,0,8.6-3.9,8.6-8.6c0-4.8-3.9-8.6-8.6-8.6c-4.8,0-8.6,3.9-8.6,8.6
		C36.4,63.8,40.2,67.6,45,67.6z M11.3,11.7h67.5v25.5H11.3V11.7z"/>
</g>
</svg>
